Coordinates
version=1
nRows=28
nColumns=23
inDegrees=yes

Units are S.I. units (second, meters, Newtons, ...)
If the header above contains a line with 'inDegrees', this indicates whether rotational values are in degrees (yes) or radians (no).

endheader
time	pelvis_tilt	pelvis_list	pelvis_rotation	pelvis_tx	pelvis_ty	pelvis_tz	hip_flexion_r	hip_adduction_r	hip_rotation_r	knee_angle_r	knee_angle_r_beta	ankle_angle_r	subtalar_angle_r	mtp_angle_r	hip_flexion_l	hip_adduction_l	hip_rotation_l	knee_angle_l	knee_angle_l_beta	ankle_angle_l	subtalar_angle_l	mtp_angle_l
      0.00000000	     -6.73046650	      0.01538548	     -3.10390331	      2.15999069	      0.98229026	      1.06452521	     -9.54498790	      1.04499042	     -1.57448596	     14.01136827	      0.24454451	     -3.71424388	      4.52446190	      0.00000000	     27.05371183	     -0.82774670	     -7.56525568	     33.96507805	      0.59280244	     10.51846076	     -5.35171989	      0.00000000
      0.00666667	     -7.06071247	      0.04594109	     -2.86502952	      2.16051026	      0.98452501	      1.06353012	     -9.16371330	      0.89793689	     -2.76651381	     15.42919274	      0.26929021	     -5.74985596	      3.62853401	      0.00000000	     27.11238199	     -0.62102218	     -8.11492924	     30.69224657	      0.53568076	     11.00602855	     -3.88345388	      0.00000000
      0.01333333	     -7.29012255	      0.15972627	     -2.82692686	      2.16096136	      0.98658464	      1.06264435	     -8.67848373	      0.50370945	     -4.22527100	     17.27013183	      0.30142066	     -7.21299859	      3.47555164	      0.00000000	     26.90525692	     -0.36246457	     -8.90028961	     27.20712423	      0.47485390	     11.46731987	     -2.14489155	      0.00000000
      0.02000000	     -7.60730060	      0.14181885	     -2.56541464	      2.16159254	      0.98811899	      1.06145400	     -8.24254588	      0.30182862	     -5.64453531	     18.86572201	      0.32926896	     -9.05511029	      2.71837562	      0.00000000	     26.73023793	     -0.01404631	     -9.06444594	     23.72488267	      0.41407732	     11.98570864	     -0.68939213	      0.00000000
      0.02666667	     -7.66886340	      0.37193441	     -2.45477430	      2.16225025	      0.98948711	      1.06025586	     -7.78708816	     -0.45053154	     -7.79660259	     21.07436401	      0.36781704	    -10.16480228	      3.17163397	      0.00000000	     25.98215155	      0.70214030	     -8.83525215	     19.78842846	      0.34537323	     11.83603652	     -0.37749639	      0.00000000
      0.03333333	     -7.87547021	      0.31991187	     -2.23827039	      2.16297962	      0.99012751	      1.05903809	     -7.32160450	     -0.75128765	     -9.30850211	     22.97180672	      0.40093366	    -11.70971246	      2.16270006	      0.00000000	     25.52946399	      1.04987017	     -8.70550926	     16.47643254	      0.28756800	     12.26930459	      0.78332027	      0.00000000
      0.04000000	     -7.72446955	      0.51248547	     -2.06779399	      2.16376695	      0.99062262	      1.05778704	     -7.02838842	     -1.60891450	    -11.58574490	     25.36336682	      0.44267426	    -12.57829712	      2.43288455	      0.00000000	     24.26769251	      1.85673757	     -7.30919479	     12.49869021	      0.21814330	     11.51730170	     -0.44343224	      0.00000000
      0.04666667	     -7.59051935	      0.50838841	     -1.82959251	      2.16456457	      0.99050463	      1.05658849	     -6.77222928	     -2.16283860	    -13.40233793	     27.60816684	      0.48185341	    -13.56476855	      1.59860427	      0.00000000	     23.25883632	      2.26957158	     -6.44078508	      9.40104809	      0.16407924	     11.24341041	     -0.64843359	      0.00000000
      0.05333333	     -7.47767631	      0.46970455	     -1.60549495	      2.16530612	      0.98980924	      1.05544423	     -6.43953230	     -2.68093582	    -14.98698196	     29.93598895	      0.52248157	    -14.44434107	      0.29935530	      0.00000000	     22.54605339	      2.48255602	     -6.24016317	      7.23660143	      0.12630252	     11.37725945	      0.02408479	      0.00000000
      0.06000000	     -7.27905594	      0.47206363	     -1.26075979	      2.16607621	      0.98876516	      1.05413036	     -6.19094327	     -3.26055783	    -16.58021185	     32.28553261	      0.56348884	    -15.07699535	     -1.13721527	      0.00000000	     21.85661192	      2.74254988	     -5.96488936	      5.65217162	      0.09864900	     11.54185917	      0.54500254	      0.00000000
      0.06666667	     -7.00099309	      0.58006284	     -0.95523685	      2.16676145	      0.98737972	      1.05285564	     -5.92932947	     -4.00240529	    -18.02417090	     34.78895576	      0.60718182	    -15.37791107	     -2.45525077	      0.00000000	     21.11500508	      3.06926858	     -5.71298035	      4.46950250	      0.07800753	     11.33450957	      0.76068331	      0.00000000
      0.07333333	     -6.68939104	      0.73065692	     -0.60392253	      2.16740348	      0.98572173	      1.05150945	     -5.67621964	     -4.75805405	    -19.24766132	     37.28171702	      0.65068871	    -15.39345135	     -3.90378691	      0.00000000	     20.45123567	      3.41751359	     -5.46225604	      3.84933624	      0.06718359	     11.05720298	      0.83328675	      0.00000000
      0.08000000	     -6.30156270	      0.93936438	     -0.23324862	      2.16799267	      0.98387275	      1.05017202	     -5.45729464	     -5.52207973	    -20.18692509	     39.76813015	      0.69408481	    -15.14452164	     -5.44580375	      0.00000000	     19.80375847	      3.79759926	     -5.24644059	      3.75301198	      0.06550242	     10.61959764	      0.81381426	      0.00000000
      0.08666667	     -6.22119084	      1.30057363	      0.01370767	      2.16839533	      0.98131200	      1.04892439	     -4.72904831	     -6.48638643	    -20.79639397	     42.49550014	      0.74168639	    -14.57329110	     -6.72545048	      0.00000000	     19.54998942	      4.28088644	     -5.01457920	      4.07573042	      0.07113492	      9.81982279	      0.39541400	      0.00000000
      0.09333333	     -6.02157580	      1.66709802	      0.29902059	      2.16867766	      0.97867141	      1.04759056	     -4.08298571	     -7.37968825	    -21.14435796	     45.14607842	      0.78794771	    -13.90626734	     -8.04661306	      0.00000000	     19.31659813	      4.75551194	     -4.86233440	      4.97827035	      0.08688721	      8.95461792	     -0.05781209	      0.00000000
      0.10000000	     -5.91656274	      2.10515511	      0.55189932	      2.16877867	      0.97560740	      1.04629042	     -3.21377134	     -8.34006370	    -21.26012976	     47.88919398	      0.83582411	    -13.09442031	     -9.17561030	      0.00000000	     19.34659917	      5.26798945	     -4.81931196	      6.44574343	      0.11249945	      7.98612105	     -0.65328381	      0.00000000
      0.10666667	     -5.96256889	      2.55019968	      0.77165866	      2.16860035	      0.97201212	      1.04501028	     -2.03997256	     -9.29663598	    -21.14899674	     50.72561707	      0.88532903	    -12.17390274	    -10.04806535	      0.00000000	     19.77408623	      5.73521176	     -4.97711311	      8.59283732	      0.14997330	      7.14077839	     -1.31073402	      0.00000000
      0.11333333	     -6.14735901	      2.93326349	      0.98899928	      2.16817977	      0.96792383	      1.04370808	     -0.59642821	    -10.16641339	    -20.86361731	     53.60512931	      0.93558600	    -11.17465895	    -10.70104258	      0.00000000	     20.58607767	      6.07540042	     -5.41625689	     11.38441890	      0.19869559	      6.57669416	     -1.78974794	      0.00000000
      0.12000000	     -6.33790621	      3.26297906	      1.14461389	      2.16751748	      0.96344812	      1.04256954	      0.98356799	    -10.94422887	    -20.37718237	     56.50186706	      0.98614361	    -10.21877995	    -11.21393200	      0.00000000	     21.58779584	      6.24625740	     -6.21974994	     14.69006976	      0.25639008	      6.49141537	     -1.90229443	      0.00000000
      0.12666667	     -6.50575224	      3.45389610	      1.21477878	      2.16667909	      0.95875096	      1.04166213	      2.67148383	    -11.47621865	    -19.62555795	     59.34765814	      1.03581204	     -9.28673376	    -11.57031045	      0.00000000	     22.65745695	      6.14529423	     -7.25133528	     18.30789488	      0.31953304	      6.92865579	     -1.61144224	      0.00000000
      0.13333333	     -6.67567418	      3.63167199	      1.28723481	      2.16565616	      0.95387294	      1.04083059	      4.44934420	    -11.96524387	    -18.82303437	     62.15755237	      1.08485394	     -8.35558326	    -11.70057942	      0.00000000	     23.62124811	      6.06228971	     -7.90283919	     21.76703035	      0.37990635	      7.57195887	     -1.78337975	      0.00000000
      0.14000000	     -6.75897360	      3.72795805	      1.36599028	      2.16451212	      0.94906740	      1.04009608	      6.19791413	    -12.30062235	    -17.97218600	     64.85496618	      1.13193270	     -7.43123292	    -11.63296670	      0.00000000	     24.40512230	      5.90103961	     -8.38197374	     25.10860663	      0.43822786	      8.57005343	     -1.91034238	      0.00000000
      0.14666667	     -6.09224605	      3.79858549	      1.47884516	      2.16355897	      0.94543167	      1.03943735	      7.04039657	    -12.55477196	    -17.27188410	     67.19182027	      1.17271849	     -6.59156805	    -11.60737386	      0.00000000	     24.09644741	      5.82551669	     -8.39028765	     27.93539133	      0.48756456	      9.85037795	     -2.66006777	      0.00000000
      0.15333333	     -6.61763109	      3.82508194	      1.53006457	      2.16187248	      0.94016621	      1.03896303	      9.51768491	    -12.65175186	    -16.14190870	     69.80639939	      1.21835151	     -5.62173856	    -11.09529305	      0.00000000	     25.19983565	      5.52495681	     -8.98321225	     31.03497079	      0.54166242	     11.48784483	     -1.82160177	      0.00000000
      0.16000000	     -6.36951694	      3.87420108	      1.55367598	      2.16040993	      0.93631594	      1.03868049	     11.06710800	    -12.67546396	    -15.08742923	     72.00919355	      1.25679752	     -4.79417671	    -10.90705490	      0.00000000	     25.12613823	      5.30328442	     -9.32756839	     33.50867669	      0.58483674	     13.33106536	     -1.30179822	      0.00000000
      0.16666667	     -6.03682121	      3.90017690	      1.65717040	      2.15895690	      0.93294476	      1.03835734	     12.49796266	    -12.63851204	    -14.13959927	     73.98385509	      1.29126186	     -3.96055384	    -10.63665908	      0.00000000	     24.74230676	      5.12043788	     -9.51976801	     35.58798118	      0.62112745	     15.22710107	     -0.68999975	      0.00000000
      0.17333333	     -5.34592785	      3.90518122	      1.92734113	      2.15767356	      0.93064949	      1.03783698	     13.40117859	    -12.54927224	    -13.41796287	     75.57283994	      1.31899488	     -3.21357065	    -10.53178900	      0.00000000	     23.66818909	      5.12115164	     -9.18252911	     37.06905054	      0.64697698	     16.89241610	     -0.76881961	      0.00000000
      0.18000000	     -5.25980508	      3.90060078	      2.03337276	      2.15614122	      0.92773218	      1.03763745	     15.14874432	    -12.40409966	    -12.49596590	     77.19566745	      1.34731857	     -2.22706774	    -10.03917102	      0.00000000	     23.19760877	      4.82296383	     -9.64818815	     38.56314533	      0.67305386	     18.89145929	      0.85714088	      0.00000000
